<?xml version="1.0" encoding="utf-8"?>
<!-- Generator: Adobe Illustrator 27.5.0, SVG Export Plug-In . SVG Version: 6.00 Build 0)  -->
<svg version="1.1" xmlns="http://www.w3.org/2000/svg" xmlns:xlink="http://www.w3.org/1999/xlink" x="0px" y="0px"
	 viewBox="0 0 595.3 841.9" style="enable-background:new 0 0 595.3 841.9;" xml:space="preserve">
<style type="text/css">
	.st0{display:none;}
	.st1{display:inline;}
	.st2{fill:#462E22;}
	.st3{display:inline;fill:none;stroke:#462E22;stroke-width:5;stroke-miterlimit:10;}
	.st4{fill:#0F5E9C;}
	.st5{display:inline;fill:none;stroke:#0F5E9C;stroke-width:4;stroke-miterlimit:10;}
	.st6{display:inline;fill:none;stroke:#0F5E9C;stroke-width:2;stroke-miterlimit:10;}
	.st7{fill:#99D9FF;}
	.st8{display:inline;fill:none;stroke:#99D9FF;stroke-width:2;stroke-miterlimit:10;}
	.st9{fill:#800909;}
	.st10{display:inline;fill:none;stroke:#800909;stroke-width:2;stroke-miterlimit:10;}
	.st11{fill:none;stroke:#0F5E9C;stroke-width:4;stroke-miterlimit:10;}
	.st12{fill:none;stroke:#0F5E9C;stroke-width:2;stroke-miterlimit:10;}
</style>
<g id="katman_1" class="st0">
	
		<image style="display:inline;overflow:visible;" width="659" height="280" xlink:href="asasa.JPG"  transform="matrix(0.75 0 0 0.75 51 315.89)">
	</image>
</g>
<g id="katman_2" class="st0">
	<g class="st1">
		<path class="st2" d="M163.6,402.2c0.1,18.2-10.6,36.1-27.4,43.5c-30.8,13.6-62.9-10.9-62.8-43.5c-0.2-32.6,32-57.1,62.8-43.5
			C153,366.1,163.8,384.1,163.6,402.2L163.6,402.2z M157.6,402.2c-0.1-35.9-41.4-55.8-67.1-28.9c-23.5,25.3-7.8,69.6,28,70.2
			C140.7,443.7,157.9,423.8,157.6,402.2L157.6,402.2z"/>
	</g>
	<g class="st1">
		<path class="st2" d="M87,430.7l12.7,3.5l-1.1-0.3h9c0,0-1.7,0.6-1.7,0.6s6.4-5.7,6.4-5.7s-0.5,0.6-0.5,0.6s4.5-7.3,4.5-7.3
			l-0.2,0.5l3.4-9.5c0,0-0.1,0.8-0.1,0.8s0-10.3,0-10.3s0.1,0.7,0.1,0.7s-3.4-11.5-3.4-11.5s0.5,1,0.5,1s-7.5-8.4-7.5-8.4l1,0.7
			c0,0-10.5-3.8-10.5-3.8s1.5,0.1,1.5,0.1c-4,1.1-8,2.3-11.9,3.4c0,0,1.2-0.8,1.2-0.8s-4.5,5.3-4.5,5.3l0.5-0.9l-1.9,6.1
			c0,0,0.1-0.7,0.1-0.7v6.5c0,0-0.2-1-0.2-1l2.2,5.3c0,0-0.8-1-0.8-1l4.5,3.4l-1.4-0.5l5.6,0.4l-1.2,0.2l4.9-2.3l-0.8,0.6l2.6-3.1
			l-0.6,1.6v-3.4h5c0,0.7,0,3.7,0,4.4c-0.4,0.4-2.8,3.3-3.2,3.8c0,0-0.3,0.4-0.3,0.4l-0.5,0.2l-4.9,2.3c0,0-0.6,0.3-0.6,0.3
			s-0.6,0-0.6,0c-0.4,0-6.2-0.4-6.4-0.4c0,0-0.6-0.5-0.6-0.5c-0.3-0.2-4.9-3.7-5-3.8c-0.1-0.2-2.3-5.6-2.5-6c0,0-0.2-0.5-0.2-0.5
			v-0.5v-6.5v-0.4c0,0,0.1-0.4,0.1-0.4s1.9-6.1,1.9-6.1s0.1-0.5,0.1-0.5s0.3-0.4,0.3-0.4l4.5-5.3l0.5-0.6c4.5-1.3,9-2.6,13.5-3.9
			c0.8,0.3,11,4,11.8,4.3c0.3,0.3,7.9,8.9,8.3,9.3c0,0,0.2,0.5,0.2,0.5s3.4,11.5,3.4,11.5l0.1,0.3v0.4v10.3v0.4c0,0-0.1,0.4-0.1,0.4
			s-3.4,9.5-3.4,9.5s-0.1,0.2-0.1,0.2l-0.1,0.2c0,0-4.5,7.3-4.5,7.3l-0.2,0.3l-0.3,0.2c-0.3,0.3-6.9,6.2-7.1,6.4c0,0-1,0-1,0h-9
			h-0.8l-0.3-0.3L87,430.7L87,430.7z"/>
	</g>
	<path class="st3" d="M113.1,381.4c-1.2-4.5,1.4-8.2,2.2-9.4c0.4-0.6,4.3-6.1,7.9-5c3.1,0.9,3.7,6.3,4,8.3c0.2,1.8,0.8,6.7-2.5,10.1
		c-0.6,0.7-2.5,2.6-5,2.5C116.2,387.7,113.9,384.1,113.1,381.4z"/>
	<path class="st3" d="M124.6,402.6c0.6-4.2,5.1-6.2,8.3-7.6c1.6-0.7,9-4,12.2-0.7c1.3,1.3,1.4,3.3,1.4,4c0.2,3.3-2.1,5.6-3.2,6.8
		c-2.4,2.5-5.1,3.3-7.2,4c-3.5,1.1-6.3,1.9-8.6,0.4C125.3,408,124.3,405.1,124.6,402.6z"/>
	<path class="st3" d="M112.4,432.1c1-1.2,6.6-7.6,16.2-8.3c9.6-0.7,16.1,4.8,17.3,5.8"/>
	<g class="st1">
		<path class="st4" d="M281.7,402.2c0.1,17.5-9.8,34.9-25.7,42.6c-5.2,2.6-11.1,4.2-16.8,4.5c-9.4,0.8-18.7-3.1-26.4-8.1
			c-3.7-2.5-7.3-5.2-10.4-8.4c-0.1-0.1-0.4-0.4-0.6-0.7c0,0,0.1,0.2,0.1,0.2s-0.1-0.1-0.1-0.1c-0.3-0.3-0.5-0.6-0.7-0.9
			c0,0,0,0,0,0.1c-0.2-0.3-0.7-0.8-0.9-1.1c-5.9-8.3-9.2-18.4-8.7-28.6c0.9-14.6,8.2-28.8,19.7-37.9c8.7-7,20.4-10.1,31.4-8.3
			C265.4,358.4,281.9,379.8,281.7,402.2L281.7,402.2z M275.7,402.2c0.1-27.3-26.2-49.1-52.6-38.6c-14.9,6.4-24.7,22.4-25.7,38.3
			c-0.4,8.8,2.5,17.7,7.6,24.8c0.3,0.4,0.7,0.9,1,1.3c0.1,0.1,0.5,0.6,0.7,0.8c2.7,2.5,5.9,5.2,9.3,7.4c5.2,3.3,10.7,6,16.8,6.9
			c6.4,0.9,13.2-0.5,19.1-3C266.6,433.6,275.8,418.2,275.7,402.2L275.7,402.2z"/>
	</g>
	<path class="st5" d="M207.1,428.9c2.5,1.7,7.7,4.7,14.8,5c5.5,0.2,9.7-1.2,11.2-1.8c5-1.9,5.1-3.7,11.9-7.6c5-2.8,7.8-4.4,11.5-4.3
		c5.5,0.1,6.7,5,10.4,4.3c4.1-0.7,8.1-6.9,6.5-11.5c-1.4-4-6.3-5.1-9-5.8c-5.6-1.3-10.6,0.6-11.9,1.1c-1,0.4-1.9,0.8-2.2,1
		c-3,1.5-4.9,3.1-6.8,4.8c-7.3,6.3-8,6.7-9,7.2c-1.9,0.9-3.5,1.2-6.1,1.8c-2,0.4-2.6,0.4-7.9,1.1c-7.2,0.9-7.5,1-8.6,0.7
		c-3.1-0.8-2.6-2.4-6.8-4c-2.7-1-3.8-0.7-5.8-2.2c-0.9-0.6-2.5-1.9-2.9-4c-0.2-1.3-0.1-3.4,1.1-4c0.7-0.4,1.5,0,4.3,1.4
		c2.9,1.5,3.4,1.9,4.7,2.5c2.6,1.3,4.7,2.4,7.6,2.5c0.7,0,2.7,0.1,5-0.7c2.1-0.7,2.7-1.5,5.4-3.2c3.2-2,3.2-1.5,6.8-3.6
		c4.3-2.5,4.4-3.5,6.8-4.3c1.8-0.6,4.3-1,7.6-0.4"/>
	<path class="st6" d="M201,384c1.3-0.6,5.8-2.5,10.1-1c1.8,0.6,3,1.6,4.4,2.8c1.2,0.9,3.1,2.5,4.4,5.2c0.8,1.5,1.6,3.1,1.2,5.2
		c-0.2,0.9-0.7,2.6-2.4,4.1c-2.5,2.1-5.6,2.1-6.4,2.1c-0.7,0-3.5-0.1-5.6-1.7c0,0-1.1-0.8-3.6-5.5l0,0c0.7-1.5,1.3-3,2-4.5"/>
	<path class="st6" d="M219.3,387.2c1.6-0.7,3.1-1.4,4.7-2.2l0,0c4.1-0.2,6.6,1,7.6,1.6c1.1,0.6,1.8,1.3,2.9,2.2
		c1.8,1.6,2.7,2.4,3.2,3.7c0.7,1.9,0.1,3.7,0,4c-0.3,0.7-1.2,2.7-3.6,3.7c-0.5,0.2-3,1.3-5.4,0.3c-2.2-0.9-3.5-3.1-3.2-5.6"/>
	<g class="st1">
		<path class="st7" d="M396.9,402.3c0.1,17.5-9.8,34.9-25.7,42.6c-5.2,2.6-11.1,4.2-16.8,4.5c-9.4,0.8-18.7-3.1-26.4-8.1
			c-3.7-2.5-7.3-5.2-10.4-8.4c-0.1-0.1-0.4-0.4-0.6-0.7c0,0,0.1,0.2,0.1,0.2s-0.1-0.1-0.1-0.1c-0.3-0.3-0.5-0.6-0.7-0.9
			c0,0,0,0,0,0.1c-0.2-0.3-0.7-0.8-0.9-1.1c-5.9-8.3-9.2-18.4-8.7-28.6c0.9-14.6,8.2-28.8,19.7-37.9c8.7-7,20.4-10.1,31.4-8.3
			C380.5,358.4,397.1,379.8,396.9,402.3L396.9,402.3z M390.9,402.3c0.1-27.3-26.2-49.1-52.6-38.6c-14.9,6.4-24.7,22.4-25.7,38.3
			c-0.4,8.8,2.5,17.7,7.6,24.8c0.3,0.4,0.7,0.9,1,1.3c0.1,0.1,0.5,0.6,0.7,0.8c2.7,2.5,5.9,5.2,9.3,7.4c5.2,3.3,10.7,6,16.8,6.9
			c6.4,0.9,13.2-0.5,19.1-3C381.8,433.6,390.9,418.2,390.9,402.3L390.9,402.3z"/>
	</g>
	<path class="st8" d="M321.9,404.8c1,5.3,2.6,9.4,4,12.2c0.9,2,2,4.3,4,6.8c0.6,0.8,3.6,4.7,8.6,7.9c9.7,6.2,20.2,5.7,23.8,5.4
		c3-0.3,9.7-0.9,15.8-5c14.8-9.9,13.8-31.5,13.7-33.1"/>
	<path class="st8" d="M391.8,400.8c-1.3,3.1-3.6,7.6-7.6,12.2c-2.6,3-6,6.9-11.9,9.7c-2.9,1.4-9.8,4-18.4,2.5
		c-2.8-0.5-12.9-2.3-18.7-11.5c-0.8-1.2-7.5-12.3-1.8-22.7c4.3-7.8,12.6-9.8,14-10.1c2.2-0.5,10-2.1,15.8,2.9
		c5.4,4.6,7.9,13.8,3.6,20.2c-2.4,3.5-7.5,7.2-13.3,5.8c-4.4-1.1-6.9-4.7-7.3-5.4c-1.7-2.6-2-5.2-2-6.4"/>
	<path class="st8" d="M339.2,362.7c2.7-0.8,10.6-2.8,19.4,0.7c7.4,3,11.4,8.2,13.3,10.8c2,2.7,5.5,7.4,6.1,14.4
		c0.2,2.2,0.7,9-3.6,15.5c-1.1,1.6-4.6,6.7-11.2,8.6c-1.7,0.5-5,1.5-8.7,0.3c-7.1-2.2-9.4-10.3-9.6-11.2"/>
	<g class="st1">
		<path class="st9" d="M513.6,403.1c0.1,17.5-9.8,34.9-25.7,42.6c-5.2,2.6-11.1,4.2-16.8,4.5c-9.4,0.8-18.7-3.1-26.4-8.1
			c-3.7-2.5-7.3-5.2-10.4-8.4c-0.1-0.1-0.4-0.4-0.6-0.7c0,0,0.1,0.2,0.1,0.2s-0.1-0.1-0.1-0.1c-0.3-0.3-0.5-0.6-0.7-0.9
			c0,0,0,0,0,0.1c-0.2-0.3-0.7-0.8-0.9-1.1c-5.9-8.3-9.2-18.4-8.7-28.6c0.9-14.6,8.2-28.8,19.7-37.9c8.7-7,20.4-10.1,31.4-8.3
			C497.2,359.2,513.8,380.6,513.6,403.1L513.6,403.1z M507.6,403.1c0.1-27.3-26.2-49.1-52.6-38.6c-14.9,6.4-24.7,22.4-25.7,38.3
			c-0.4,8.8,2.5,17.7,7.6,24.8c0.3,0.4,0.7,0.9,1,1.3c0.1,0.1,0.5,0.6,0.7,0.8c2.7,2.5,5.9,5.2,9.3,7.4c5.2,3.3,10.7,6,16.8,6.9
			c6.4,0.9,13.2-0.5,19.1-3C498.5,434.4,507.6,419,507.6,403.1L507.6,403.1z"/>
	</g>
	<path class="st10" d="M437.1,426.7c-1.6-6.4-0.3-10.4,0.7-12.6c0.4-0.7,1.1-2.1,7.9-9c5.5-5.6,6.1-5.8,7.2-7.6
		c1.5-2.5,3-6.7,2.2-13.3"/>
	<path class="st10" d="M444.7,433.2c-1.4-6.1-0.2-10.2,0.7-12.2c1.2-2.9,3.5-5.1,7.9-9.7c5.4-5.5,5.8-4.9,7.2-7.2
		c2.2-3.7,2.3-7.4,2.5-14.8c0.2-8.7-1.1-8.5,0-11.9c1.5-4.7,5.3-8.6,8.6-12.2c1.2-1.2,2.2-2.2,2.9-2.9"/>
	<path class="st10" d="M501.9,423.9c-0.2-3.8-0.9-9-4-14c-1.6-2.6-2.8-3.5-12.2-12.6c-7.5-7.2-9.1-8.8-10.8-11.5
		c-2.4-3.7-4.5-6.8-4.7-11.2c-0.3-6,2.9-10.5,4.3-12.2"/>
	<path class="st10" d="M453.3,439c2.9-6.8,6.6-11.3,9.7-14.4c4.3-4.2,6.5-4.6,8.3-8.3c2.6-5.6,1.2-12.5-1.8-17.3
		c-2.1-3.5-4.9-5.5-6.6-6.5"/>
	<path class="st10" d="M472.8,444.4c-0.5-6.6,1.1-10.9,2.5-13.7c2.2-4.2,4.4-4.8,5.8-9c1.8-5.7-0.1-10.9-0.7-12.2
		c-3-7.3-9.6-10-10.8-10.4"/>
	<path class="st10" d="M485.7,397.2c0.3,0.4,6.7,9.5,2.5,19.1c-2.6,5.9-7.6,8.5-9.2,9.2"/>
</g>
<g id="katman_3">
	<g>
		<path class="st4" d="M348.5,398.3c0.1,17.5-9.8,34.9-25.7,42.6c-5.2,2.6-11.1,4.2-16.8,4.5c-9.4,0.8-18.7-3.1-26.4-8.1
			c-3.7-2.5-7.3-5.2-10.4-8.4c-0.1-0.1-0.4-0.4-0.6-0.7c0,0,0.1,0.2,0.1,0.2s-0.1-0.1-0.1-0.1c-0.3-0.3-0.5-0.6-0.7-0.9
			c0,0,0,0,0,0.1c-0.2-0.3-0.7-0.8-0.9-1.1c-5.9-8.3-9.2-18.4-8.7-28.6c0.9-14.6,8.2-28.8,19.7-37.9c8.7-7,20.4-10.1,31.4-8.3
			C332.1,354.5,348.7,375.9,348.5,398.3L348.5,398.3z M342.5,398.3c0.1-27.3-26.2-49.1-52.6-38.6c-14.9,6.4-24.7,22.4-25.7,38.3
			c-0.4,8.8,2.5,17.7,7.6,24.8c0.3,0.4,0.7,0.9,1,1.3c0.1,0.1,0.5,0.6,0.7,0.8c2.7,2.5,5.9,5.2,9.3,7.4c5.2,3.3,10.7,6,16.8,6.9
			c6.4,0.9,13.2-0.5,19.1-3C333.4,429.7,342.5,414.2,342.5,398.3L342.5,398.3z"/>
	</g>
	<path class="st11" d="M273.8,425c2.5,1.7,7.7,4.7,14.8,5c5.5,0.2,9.7-1.2,11.2-1.8c5-1.9,5.1-3.7,11.9-7.6c5-2.8,7.8-4.4,11.5-4.3
		c5.5,0.1,6.7,5,10.4,4.3c4.1-0.7,8.1-6.9,6.5-11.5c-1.4-4-6.3-5.1-9-5.8c-5.6-1.3-10.6,0.6-11.9,1.1c-1,0.4-1.9,0.8-2.2,1
		c-3,1.5-4.9,3.1-6.8,4.8c-7.3,6.3-8,6.7-9,7.2c-1.9,0.9-3.5,1.2-6.1,1.8c-2,0.4-2.6,0.4-7.9,1.1c-7.2,0.9-7.5,1-8.6,0.7
		c-3.1-0.8-2.6-2.4-6.8-4c-2.7-1-3.8-0.7-5.8-2.2c-0.9-0.6-2.5-1.9-2.9-4c-0.2-1.3-0.1-3.4,1.1-4c0.7-0.4,1.5,0,4.3,1.4
		c2.9,1.5,3.4,1.9,4.7,2.5c2.6,1.3,4.7,2.4,7.6,2.5c0.7,0,2.7,0.1,5-0.7c2.1-0.7,2.7-1.5,5.4-3.2c3.2-2,3.2-1.5,6.8-3.6
		c4.3-2.5,4.4-3.5,6.8-4.3c1.8-0.6,4.3-1,7.6-0.4"/>
	<path class="st12" d="M267.7,380.1c1.3-0.6,5.8-2.5,10.1-1c1.8,0.6,3,1.6,4.4,2.8c1.2,0.9,3.1,2.5,4.4,5.2c0.8,1.5,1.6,3.1,1.2,5.2
		c-0.2,0.9-0.7,2.6-2.4,4.1c-2.5,2.1-5.6,2.1-6.4,2.1c-0.7,0-3.5-0.1-5.6-1.7c0,0-1.1-0.8-3.6-5.5l0,0c0.7-1.5,1.3-3,2-4.5"/>
	<path class="st12" d="M286.1,383.2c1.6-0.7,3.1-1.4,4.7-2.2l0,0c4.1-0.2,6.6,1,7.6,1.6c1.1,0.6,1.8,1.3,2.9,2.2
		c1.8,1.6,2.7,2.4,3.2,3.7c0.7,1.9,0.1,3.7,0,4c-0.3,0.7-1.2,2.7-3.6,3.7c-0.5,0.2-3,1.3-5.4,0.3c-2.2-0.9-3.5-3.1-3.2-5.6"/>
</g>
</svg>
